
<svg xmlns="http://www.w3.org/2000/svg" version="1.1" xmlns:xlink="http://www.w3.org/1999/xlink" preserveAspectRatio="none" x="0px" y="0px" width="100px" height="100px" viewBox="0 0 100 100">
	<path fill="#889c78" stroke="none" d="
M 81.25 27.15
Q 85.4892578125 33.0927734375 87.7 40.55 89.6517578125 47.2306640625 89.65 53.25 89.6521484375 60.9798828125 88.45 64 88.144921875 64.834765625 88.15 65 87.7841796875 64.9966796875 87.5 65.2 87.4755859375 65.2466796875 87.45 65.25
L 87.85 62.45
Q 88.4017578125 58.9921875 85.45 55.95 82.8201171875 53.1916015625 79.2 52.7 75.6591796875 52.197265625 72.8 54.4
L 72.85 54.4
Q 70.016015625 56.5466796875 69.5 60.05
L 65.6 87.7
Q 65.091796875 91.2646484375 67.3 94.15 69.389453125 96.9845703125 72.95 97.5
L 72.95 97.5
Q 76.564453125 98.0056640625 79.85 95.9 83.458203125 93.630859375 83.95 90.15
L 84.25 87.9
Q 84.8212890625 89.5796875 87.35 88.95
L 87.4 88.95
Q 89.1388671875 88.5408203125 91.2 87.15 91.279296875 87.13203125 91.35 87.05 94.4630859375 84.044921875 96.4 77.7 99.29765625 68.43671875 99.3 53.25 99.301953125 35.4845703125 91.65 23.35 85.564453125 13.60234375 74.95 7.9 67.337890625 3.851953125 58.25 2.25 55.423046875 1.7595703125 52.75 1.55
L 49.4 1.45
Q 46.3298828125 1.4515625 41.7 2.25 32.660546875 3.851171875 25.1 7.9 14.4337890625 13.601953125 8.35 23.35 0.6978515625 35.4845703125 0.7 53.25 0.70234375 68.43671875 3.6 77.7 5.6314453125 84.026953125 8.6 87.05 8.727734375 87.1505859375 8.85 87.2
L 10.05 87.85
Q 11.4900390625 88.7060546875 12.6 88.95
L 12.6 88.95
Q 15.16328125 89.5716796875 15.75 87.9
L 16.05 90.15
Q 16.5416015625 93.630859375 20.1 95.9 23.503125 98.0064453125 27.05 97.5 30.60078125 96.9923828125 32.8 94.15
L 32.8 94.15
Q 34.9521484375 91.263671875 34.45 87.7
L 30.55 60.05
Q 30.0337890625 56.5466796875 27.2 54.4 24.324609375 52.1994140625 20.75 52.7
L 20.75 52.7
Q 17.1708984375 53.2009765625 14.5 55.95
L 14.5 55.95
Q 11.6630859375 58.9935546875 12.15 62.4
L 12.15 62.45 12.55 65.25
Q 12.524609375 65.246875 12.5 65.2 12.2158203125 64.9966796875 11.85 65 11.8767578125 64.8390625 11.55 64.05
L 11.55 64
Q 10.3501953125 60.976953125 10.35 53.25 10.3482421875 47.2306640625 12.3 40.55
L 12.3 40.6
Q 14.559765625 33.105078125 18.75 27.15 23.492578125 20.4185546875 30.25 16.6
L 30.2 16.6
Q 37.8640625 12.3943359375 47.45 12.4
L 52.55 12.4
Q 62.1861328125 12.39375 69.85 16.6
L 69.85 16.6
Q 76.509765625 20.41796875 81.25 27.15 Z"/>

</svg>
